<?xml version="1.0" encoding="utf-8"?>
<!DOCTYPE svg PUBLIC "-//W3C//DTD SVG 1.1//EN" "http://www.w3.org/Graphics/SVG/1.1/DTD/svg11.dtd">
<svg xmlns="http://www.w3.org/2000/svg" width="512" height="512">
<circle r="10" cx="192" cy="320" fill="black" />
<circle r="10" cx="192" cy="192" fill="black" />
<circle r="10" cx="320" cy="320" fill="black" />
<circle r="10" cx="320" cy="192" fill="black" />
<circle r="0" cx="0" cy="192" fill="black" />
<circle r="0" cx="32" cy="192" fill="black" />
<circle r="0" cx="64" cy="192" fill="black" />
<circle r="0" cx="96" cy="192" fill="black" />
<circle r="0" cx="128" cy="192" fill="black" />
<circle r="0" cx="160" cy="192" fill="black" />
<circle r="0" cx="192" cy="192" fill="black" />
<circle r="0" cx="224" cy="192" fill="black" />
<circle r="0" cx="512" cy="192" fill="black" />
<circle r="0" cx="480" cy="192" fill="black" />
<circle r="0" cx="448" cy="192" fill="black" />
<circle r="0" cx="416" cy="192" fill="black" />
<circle r="0" cx="384" cy="192" fill="black" />
<circle r="0" cx="352" cy="192" fill="black" />
<circle r="0" cx="320" cy="192" fill="black" />
<circle r="0" cx="288" cy="192" fill="black" />
<circle r="0" cx="256" cy="192" fill="black" />
<circle r="0" cx="320" cy="512" fill="black" />
<circle r="0" cx="320" cy="480" fill="black" />
<circle r="0" cx="320" cy="448" fill="black" />
<circle r="0" cx="320" cy="416" fill="black" />
<circle r="0" cx="320" cy="384" fill="black" />
<circle r="0" cx="320" cy="352" fill="black" />
<circle r="0" cx="320" cy="320" fill="black" />
<circle r="0" cx="320" cy="288" fill="black" />
<circle r="0" cx="320" cy="0" fill="black" />
<circle r="0" cx="320" cy="32" fill="black" />
<circle r="0" cx="320" cy="64" fill="black" />
<circle r="0" cx="320" cy="96" fill="black" />
<circle r="0" cx="320" cy="128" fill="black" />
<circle r="0" cx="320" cy="160" fill="black" />
<circle r="0" cx="320" cy="192" fill="black" />
<circle r="0" cx="320" cy="224" fill="black" />
<circle r="0" cx="320" cy="256" fill="black" />
<circle r="0" cx="0" cy="0" fill="black" />
<circle r="0" cx="32" cy="32" fill="black" />
<circle r="0" cx="64" cy="64" fill="black" />
<circle r="0" cx="96" cy="96" fill="black" />
<circle r="0" cx="128" cy="128" fill="black" />
<circle r="0" cx="160" cy="160" fill="black" />
<circle r="0" cx="192" cy="192" fill="black" />
<circle r="0" cx="224" cy="224" fill="black" />
<circle r="0" cx="256" cy="256" fill="black" />
<circle r="0" cx="288" cy="288" fill="black" />
<circle r="0" cx="320" cy="320" fill="black" />
<circle r="0" cx="352" cy="352" fill="black" />
<circle r="0" cx="384" cy="384" fill="black" />
<circle r="0" cx="416" cy="416" fill="black" />
<circle r="0" cx="448" cy="448" fill="black" />
<circle r="0" cx="480" cy="480" fill="black" />
<circle r="0" cx="512" cy="512" fill="black" />
<line x1="192" y1="0" x2="192" y2="512" stroke="black" stroke-width="2"/>
<line x1="512" y1="320" x2="0" y2="320" stroke="black" stroke-width="2"/>
<line x1="0" y1="192" x2="32" y2="192" stroke="black" stroke-width="2"/>
<line x1="64" y1="192" x2="96" y2="192" stroke="black" stroke-width="2"/>
<line x1="128" y1="192" x2="160" y2="192" stroke="black" stroke-width="2"/>
<line x1="192" y1="192" x2="224" y2="192" stroke="black" stroke-width="2"/>
<line x1="480" y1="192" x2="448" y2="192" stroke="black" stroke-width="2"/>
<line x1="416" y1="192" x2="384" y2="192" stroke="black" stroke-width="2"/>
<line x1="352" y1="192" x2="320" y2="192" stroke="black" stroke-width="2"/>
<line x1="288" y1="192" x2="256" y2="192" stroke="black" stroke-width="2"/>
<line x1="320" y1="512" x2="320" y2="480" stroke="black" stroke-width="2"/>
<line x1="320" y1="448" x2="320" y2="416" stroke="black" stroke-width="2"/>
<line x1="320" y1="384" x2="320" y2="352" stroke="black" stroke-width="2"/>
<line x1="320" y1="320" x2="320" y2="288" stroke="black" stroke-width="2"/>
<line x1="320" y1="32" x2="320" y2="64" stroke="black" stroke-width="2"/>
<line x1="320" y1="96" x2="320" y2="128" stroke="black" stroke-width="2"/>
<line x1="320" y1="160" x2="320" y2="192" stroke="black" stroke-width="2"/>
<line x1="320" y1="224" x2="320" y2="256" stroke="black" stroke-width="2"/>
<line x1="0" y1="0" x2="32" y2="32" stroke="black" stroke-width="2"/>
<line x1="64" y1="64" x2="96" y2="96" stroke="black" stroke-width="2"/>
<line x1="128" y1="128" x2="160" y2="160" stroke="black" stroke-width="2"/>
<line x1="192" y1="192" x2="224" y2="224" stroke="black" stroke-width="2"/>
<line x1="256" y1="256" x2="288" y2="288" stroke="black" stroke-width="2"/>
<line x1="320" y1="320" x2="352" y2="352" stroke="black" stroke-width="2"/>
<line x1="384" y1="384" x2="416" y2="416" stroke="black" stroke-width="2"/>
<line x1="448" y1="448" x2="480" y2="480" stroke="black" stroke-width="2"/>
</svg>